<?xml version="1.0" encoding="utf-8"?>
<!-- Generator: Adobe Illustrator 23.0.3, SVG Export Plug-In . SVG Version: 6.00 Build 0)  -->
<svg version="1.1" id="Layer_1" xmlns="http://www.w3.org/2000/svg" xmlns:xlink="http://www.w3.org/1999/xlink" x="0px" y="0px"
	 viewBox="0 0 2000 1000" style="enable-background:new 0 0 2000 1000;" xml:space="preserve">
<style type="text/css">
	.st0{fill:none;stroke:#A89B92;stroke-miterlimit:10;}
	.st1{fill:#A89B92;}
	.st2{font-family:'RobotoMono-Regular';}
	.st3{font-size:12px;}
</style>
<g>
	<line class="st0" x1="0" y1="500.5" x2="2000" y2="500.5"/>
</g>
<g>
	<line class="st0" x1="0" y1="450.5" x2="2000" y2="450.5"/>
</g>
<g>
	<line class="st0" x1="0" y1="400.5" x2="2000" y2="400.5"/>
</g>
<text transform="matrix(1 0 0 1 9.5205 495.4951)" class="st1 st2 st3">0</text>
<g>
	<line class="st0" x1="0" y1="600.5" x2="2000" y2="600.5"/>
</g>
<g>
	<line class="st0" x1="0" y1="550.5" x2="2000" y2="550.5"/>
</g>
<text transform="matrix(1 0 0 1 9.5205 595.4951)" class="st1 st2 st3">100</text>
<g>
	<line class="st0" x1="0" y1="700.5" x2="2000" y2="700.5"/>
</g>
<g>
	<line class="st0" x1="0" y1="650.5" x2="2000" y2="650.5"/>
</g>
<text transform="matrix(1 0 0 1 9.5205 695.4951)" class="st1 st2 st3">200</text>
<g>
	<line class="st0" x1="0" y1="800.5" x2="2000" y2="800.5"/>
</g>
<g>
	<line class="st0" x1="0" y1="750.5" x2="2000" y2="750.5"/>
</g>
<text transform="matrix(1 0 0 1 9.5205 795.4951)" class="st1 st2 st3">300</text>
<g>
	<line class="st0" x1="0" y1="900.5" x2="2000" y2="900.5"/>
</g>
<g>
	<line class="st0" x1="0" y1="850.5" x2="2000" y2="850.5"/>
</g>
<g>
	<line class="st0" x1="0" y1="950.5" x2="2000" y2="950.5"/>
</g>
<g>
	<line class="st0" x1="0" y1="1000.5" x2="2000" y2="1000.5"/>
</g>
<text transform="matrix(1 0 0 1 9.5205 895.4951)" class="st1 st2 st3">400</text>
<text transform="matrix(1 0 0 1 9.5205 395.4951)" class="st1 st2 st3">-100</text>
<g>
	<line class="st0" x1="0" y1="350.5" x2="2000" y2="350.5"/>
</g>
<g>
	<line class="st0" x1="0" y1="300.5" x2="2000" y2="300.5"/>
</g>
<text transform="matrix(1 0 0 1 9.5205 295.4951)" class="st1 st2 st3">-200</text>
<g>
	<line class="st0" x1="0" y1="250.5" x2="2000" y2="250.5"/>
</g>
<g>
	<line class="st0" x1="0" y1="200.5" x2="2000" y2="200.5"/>
</g>
<text transform="matrix(1 0 0 1 9.5205 195.4951)" class="st1 st2 st3">-300</text>
<g>
	<line class="st0" x1="0" y1="150.5" x2="2000" y2="150.5"/>
</g>
<g>
	<line class="st0" x1="0" y1="100.5" x2="2000" y2="100.5"/>
</g>
<g>
	<line class="st0" x1="0" y1="50.5" x2="2000" y2="50.5"/>
</g>
<g>
	<line class="st0" x1="0" y1="0.5" x2="2000" y2="0.5"/>
</g>
<text transform="matrix(1 0 0 1 9.5205 95.4951)" class="st1 st2 st3">-400</text>
</svg>
