<svg height="200" viewBox="0 0 200 200" width="200" xmlns="http://www.w3.org/2000/svg"><g fill="none" fill-rule="evenodd"><path d="m0 0h200v200h-200z" fill="#3a0839"/><path d="m0 0h200v200h-200z" fill="#3a0839"/><path d="m107.712158 54.1156265c3.189673 1.8143305 5.659475 4.7100501 7.532311 7.8761169 10.007965 16.5752911 19.998372 33.1686054 30.006337 49.7438966 2.036709 3.268198 4.032449 6.716627 4.547479 10.627651.790102 4.830205-.760839 10.062926-4.301669 13.397209-3.464746 3.382345-8.369234 4.734081-13.057176 4.692027-21.654661.012015-43.3034694.012015-64.9581306 0-5.870169.120154-12.1734312-2.28894-15.3455464-7.60577-3.4062197-5.503069-2.4405388-12.748375.8018077-18.083228 10.6341945-17.7227648 21.3327676-35.4094836 32.0079303-53.1082177 2.4756545-4.1933864 6.2564413-7.7739858 10.9443828-9.083668 3.9388073-1.147474 8.2814452-.5346869 11.8222742 1.5439832zm-11.2481939 23.8373424c1.6811514-2.8550088 4.4842139-2.9064907 6.2608559-.114924l24.721995 38.8446791c1.776624 2.791538.523044 5.054526-2.781353 5.054527l-47.985342.000001c-3.312723 0-4.6369183-2.311818-2.9542218-5.169451z" fill="#f34246"/></g></svg>