<?xml version="1.0" encoding="UTF-8"?>
<svg width="100px" height="100px" viewBox="0 0 100 100" version="1.1" xmlns="http://www.w3.org/2000/svg" xmlns:xlink="http://www.w3.org/1999/xlink">
    <!-- Generator: Sketch 47.1 (45422) - http://www.bohemiancoding.com/sketch -->
    <title>logo-symbol</title>
    <desc>Created with Sketch.</desc>
    <defs></defs>
    <g id="Page-1" stroke="none" stroke-width="1" fill="none" fill-rule="evenodd">
        <g id="logo-symbol">
            <path d="M57.7121583,8.11562651 C60.9018314,9.92995703 63.3716333,12.8256766 65.2444689,15.9917434 C75.2524339,32.5670345 85.2428411,49.1603488 95.2508061,65.7356398 C97.2875148,69.0038379 99.2832552,72.4522674 99.798285,76.3632911 C100.588387,81.1934956 99.0374455,86.426217 95.4966158,89.7604999 C92.03187,93.1428446 87.1273819,94.4945809 82.4394404,94.4525269 C60.7847792,94.4645423 39.1359706,94.4645423 17.4813094,94.4525269 C11.6111404,94.5726812 5.30787825,92.1635867 2.13576302,86.8467572 C-1.27045666,81.3436885 -0.304775826,74.0983818 2.93757074,68.7635292 C13.5717652,51.0407642 24.2703383,33.3540454 34.945501,15.6553113 C37.4211555,11.4619249 41.2019423,7.88132555 45.8898838,6.57164325 C49.8286911,5.42416931 54.1713286,6.03695644 57.7121583,8.11562651 Z M46.4639641,31.9529689 C48.1451155,29.0979601 50.948178,29.0464782 52.7248202,31.8380449 L77.4468153,70.6827237 C79.2234393,73.4742618 77.9698591,75.7372505 74.665462,75.7372506 L26.68012,75.7372516 C23.367397,75.7372517 22.0432017,73.4254339 23.7258982,70.567801 L46.4639641,31.9529689 Z" id="Shape" fill="#F34246"></path>
        </g>
    </g>
</svg>