<?xml version="1.0" standalone="no"?>
<!DOCTYPE svg PUBLIC "-//W3C//DTD SVG 20010904//EN"
 "http://www.w3.org/TR/2001/REC-SVG-20010904/DTD/svg10.dtd">
<svg version="1.0" xmlns="http://www.w3.org/2000/svg"
 width="700.000000pt" height="700.000000pt" viewBox="0 0 700.000000 700.000000"
 preserveAspectRatio="xMidYMid meet">
<metadata>
Created by potrace 1.11, written by Peter Selinger 2001-2013
</metadata>
<g transform="translate(0.000000,700.000000) scale(0.100000,-0.100000)"
fill="#000000" stroke="none">
<path d="M3305 6560 c-347 -70 -626 -283 -857 -655 -119 -191 -368 -609 -368
-617 0 -4 -4 -8 -10 -8 -5 0 -10 -4 -10 -9 0 -5 -23 -47 -50 -93 -28 -46 -55
-90 -60 -98 -5 -8 -98 -163 -208 -345 -109 -181 -312 -517 -449 -745 -138
-228 -403 -667 -588 -975 -186 -308 -349 -578 -362 -600 -13 -22 -34 -56 -46
-76 -182 -300 -255 -481 -286 -712 -12 -89 -7 -284 9 -370 51 -266 208 -501
435 -652 103 -69 256 -140 342 -160 10 -2 45 -11 78 -19 154 -36 172 -36 2665
-33 1345 1 2456 6 2470 9 13 4 42 10 65 14 93 13 263 71 359 122 134 71 304
218 375 323 94 142 155 297 179 459 12 78 5 301 -12 388 -42 216 -116 373
-406 852 -200 330 -365 605 -385 638 -5 9 -32 53 -59 97 -27 44 -57 94 -66
110 -9 17 -129 215 -265 440 -285 471 -382 632 -410 680 -11 18 -137 227 -280
464 -143 237 -300 498 -348 579 -263 437 -333 538 -465 669 -165 162 -398 290
-582 319 -19 3 -39 8 -43 11 -5 3 -68 6 -140 8 -98 2 -155 -2 -222 -15z m258
-1669 c16 -6 49 -33 75 -60 28 -29 247 -363 541 -827 272 -429 523 -822 556
-874 34 -52 115 -179 181 -283 65 -103 152 -238 191 -300 40 -61 77 -121 83
-132 5 -11 59 -95 118 -188 144 -222 164 -262 166 -335 1 -49 -4 -65 -26 -98
-32 -46 -84 -76 -158 -91 -28 -6 -3465 -3 -3495 3 -82 15 -144 60 -171 123
-32 76 -11 152 90 321 38 63 77 129 86 145 18 33 1027 1746 1080 1835 18 30
41 70 52 88 124 220 339 572 370 607 77 88 157 108 261 66z"/>
</g>
</svg>
