<svg id="Layer_1" xmlns="http://www.w3.org/2000/svg" viewBox="0 0 2000 1000" style="enable-background:new 0 0 2000 1000"><style>.st0{fill:none;stroke:#a89b92;stroke-miterlimit:10}.st1{fill:#a89b92}.st2{font-family:&apos;RobotoMono-Regular&apos;}.st3{font-size:12px}</style><path class="st0" d="M0 500.5h2000M0 450.5h2000M0 400.5h2000"/><text transform="translate(9.5 495.5)" class="st1 st2 st3">0</text><path class="st0" d="M0 600.5h2000M0 550.5h2000"/><text transform="translate(9.5 595.5)" class="st1 st2 st3">100</text><path class="st0" d="M0 700.5h2000M0 650.5h2000"/><text transform="translate(9.5 695.5)" class="st1 st2 st3">200</text><path class="st0" d="M0 800.5h2000M0 750.5h2000"/><text transform="translate(9.5 795.5)" class="st1 st2 st3">300</text><path class="st0" d="M0 900.5h2000M0 850.5h2000M0 950.5h2000M0 1000.5h2000"/><text transform="translate(9.5 895.5)" class="st1 st2 st3">400</text><text transform="translate(9.5 395.5)" class="st1 st2 st3">-100</text><path class="st0" d="M0 350.5h2000M0 300.5h2000"/><text transform="translate(9.5 295.5)" class="st1 st2 st3">-200</text><path class="st0" d="M0 250.5h2000M0 200.5h2000"/><text transform="translate(9.5 195.5)" class="st1 st2 st3">-300</text><path class="st0" d="M0 150.5h2000M0 100.5h2000M0 50.5h2000M0 .5h2000"/><text transform="translate(9.5 95.5)" class="st1 st2 st3">-400</text></svg>